<mxfile host="Electron" agent="Mozilla/5.0 (Windows NT 10.0; Win64; x64) AppleWebKit/537.36 (KHTML, like Gecko) draw.io/26.0.4 Chrome/128.0.6613.186 Electron/32.2.5 Safari/537.36" version="26.0.4">
  <diagram name="Sayfa -1" id="enzy9kZGAiI7FpsurEvg">
    <mxGraphModel dx="2206" dy="1286" grid="1" gridSize="10" guides="1" tooltips="1" connect="1" arrows="1" fold="1" page="1" pageScale="1" pageWidth="3300" pageHeight="4681" math="0" shadow="0">
      <root>
        <mxCell id="0" />
        <mxCell id="1" parent="0" />
        <mxCell id="1OkVXM3lb4R1ACt4dG86-137" value="" style="endArrow=none;html=1;rounded=0;exitX=1;exitY=0.5;exitDx=0;exitDy=0;entryX=0;entryY=0.5;entryDx=0;entryDy=0;labelBackgroundColor=none;strokeColor=#0B4D6A;fontColor=default;" parent="1" target="KLQyToDOkxuxc8WSjmjW-53" edge="1" source="KLQyToDOkxuxc8WSjmjW-11">
          <mxGeometry relative="1" as="geometry">
            <mxPoint x="580" y="745" as="sourcePoint" />
            <mxPoint x="600" y="620" as="targetPoint" />
          </mxGeometry>
        </mxCell>
        <mxCell id="1OkVXM3lb4R1ACt4dG86-138" value="&lt;font style=&quot;font-size: 15px;&quot;&gt;*&lt;/font&gt;" style="resizable=0;html=1;whiteSpace=wrap;align=right;verticalAlign=bottom;labelBackgroundColor=none;fillColor=#09555B;strokeColor=#BAC8D3;fontColor=#EEEEEE;" parent="1OkVXM3lb4R1ACt4dG86-137" connectable="0" vertex="1">
          <mxGeometry x="1" relative="1" as="geometry">
            <mxPoint x="-10" y="2" as="offset" />
          </mxGeometry>
        </mxCell>
        <mxCell id="i_vCI5zejf2WjMVPMlsl-74" value="" style="endArrow=none;html=1;rounded=0;exitX=1.003;exitY=0.053;exitDx=0;exitDy=0;exitPerimeter=0;labelBackgroundColor=none;strokeColor=#0B4D6A;fontColor=default;" parent="1" edge="1">
          <mxGeometry relative="1" as="geometry">
            <mxPoint x="1665.8999999999999" y="486.8700000000001" as="sourcePoint" />
            <mxPoint x="1970" y="500" as="targetPoint" />
          </mxGeometry>
        </mxCell>
        <mxCell id="i_vCI5zejf2WjMVPMlsl-75" value="1" style="resizable=0;html=1;whiteSpace=wrap;align=right;verticalAlign=bottom;labelBackgroundColor=none;fillColor=#09555B;strokeColor=#BAC8D3;fontColor=#EEEEEE;" parent="i_vCI5zejf2WjMVPMlsl-74" connectable="0" vertex="1">
          <mxGeometry x="1" relative="1" as="geometry" />
        </mxCell>
        <mxCell id="i_vCI5zejf2WjMVPMlsl-76" value="Subcategory" style="text;html=1;align=center;verticalAlign=middle;whiteSpace=wrap;rounded=0;labelBackgroundColor=none;fontColor=#EEEEEE;" parent="1" vertex="1">
          <mxGeometry x="1870" y="510" width="80" height="30" as="geometry" />
        </mxCell>
        <mxCell id="i_vCI5zejf2WjMVPMlsl-77" value="" style="endArrow=none;html=1;rounded=0;exitX=1.026;exitY=0.281;exitDx=0;exitDy=0;exitPerimeter=0;labelBackgroundColor=none;strokeColor=#0B4D6A;fontColor=default;" parent="1" edge="1">
          <mxGeometry relative="1" as="geometry">
            <mxPoint x="1674.6799999999998" y="518.4300000000001" as="sourcePoint" />
            <mxPoint x="1970" y="500" as="targetPoint" />
          </mxGeometry>
        </mxCell>
        <mxCell id="i_vCI5zejf2WjMVPMlsl-78" value="" style="resizable=0;html=1;whiteSpace=wrap;align=right;verticalAlign=bottom;labelBackgroundColor=none;fillColor=#09555B;strokeColor=#BAC8D3;fontColor=#EEEEEE;" parent="i_vCI5zejf2WjMVPMlsl-77" connectable="0" vertex="1">
          <mxGeometry x="1" relative="1" as="geometry">
            <mxPoint x="-1" y="11" as="offset" />
          </mxGeometry>
        </mxCell>
        <mxCell id="i_vCI5zejf2WjMVPMlsl-80" value="Parent Category" style="text;html=1;align=center;verticalAlign=middle;whiteSpace=wrap;rounded=0;labelBackgroundColor=none;fontColor=#EEEEEE;" parent="1" vertex="1">
          <mxGeometry x="1870" y="460" width="80" height="30" as="geometry" />
        </mxCell>
        <mxCell id="KLQyToDOkxuxc8WSjmjW-1" value="USERS" style="swimlane;fontStyle=0;childLayout=stackLayout;horizontal=1;startSize=26;fillColor=#0050ef;horizontalStack=0;resizeParent=1;resizeParentMax=0;resizeLast=0;collapsible=1;marginBottom=0;whiteSpace=wrap;html=1;strokeColor=#001DBC;gradientColor=none;" parent="1" vertex="1">
          <mxGeometry x="370" y="510" width="180" height="442" as="geometry" />
        </mxCell>
        <mxCell id="KLQyToDOkxuxc8WSjmjW-2" value="id: INT" style="text;strokeColor=none;fillColor=none;align=left;verticalAlign=top;spacingLeft=4;spacingRight=4;overflow=hidden;rotatable=0;points=[[0,0.5],[1,0.5]];portConstraint=eastwest;whiteSpace=wrap;html=1;" parent="KLQyToDOkxuxc8WSjmjW-1" vertex="1">
          <mxGeometry y="26" width="180" height="26" as="geometry" />
        </mxCell>
        <mxCell id="KLQyToDOkxuxc8WSjmjW-3" value="first_name: VARCHAR(50)" style="text;strokeColor=none;fillColor=none;align=left;verticalAlign=top;spacingLeft=4;spacingRight=4;overflow=hidden;rotatable=0;points=[[0,0.5],[1,0.5]];portConstraint=eastwest;whiteSpace=wrap;html=1;" parent="KLQyToDOkxuxc8WSjmjW-1" vertex="1">
          <mxGeometry y="52" width="180" height="26" as="geometry" />
        </mxCell>
        <mxCell id="KLQyToDOkxuxc8WSjmjW-4" value="middle_initial: CHAR(1)" style="text;strokeColor=none;fillColor=none;align=left;verticalAlign=top;spacingLeft=4;spacingRight=4;overflow=hidden;rotatable=0;points=[[0,0.5],[1,0.5]];portConstraint=eastwest;whiteSpace=wrap;html=1;" parent="KLQyToDOkxuxc8WSjmjW-1" vertex="1">
          <mxGeometry y="78" width="180" height="26" as="geometry" />
        </mxCell>
        <mxCell id="KLQyToDOkxuxc8WSjmjW-6" value="last_name: VARCHAR(50)" style="text;strokeColor=none;fillColor=none;align=left;verticalAlign=top;spacingLeft=4;spacingRight=4;overflow=hidden;rotatable=0;points=[[0,0.5],[1,0.5]];portConstraint=eastwest;whiteSpace=wrap;html=1;" parent="KLQyToDOkxuxc8WSjmjW-1" vertex="1">
          <mxGeometry y="104" width="180" height="26" as="geometry" />
        </mxCell>
        <mxCell id="KLQyToDOkxuxc8WSjmjW-13" value="email: VARCHAR(100)" style="text;strokeColor=none;fillColor=none;align=left;verticalAlign=top;spacingLeft=4;spacingRight=4;overflow=hidden;rotatable=0;points=[[0,0.5],[1,0.5]];portConstraint=eastwest;whiteSpace=wrap;html=1;" parent="KLQyToDOkxuxc8WSjmjW-1" vertex="1">
          <mxGeometry y="130" width="180" height="26" as="geometry" />
        </mxCell>
        <mxCell id="KLQyToDOkxuxc8WSjmjW-12" value="address: VARCHAR(100)" style="text;strokeColor=none;fillColor=none;align=left;verticalAlign=top;spacingLeft=4;spacingRight=4;overflow=hidden;rotatable=0;points=[[0,0.5],[1,0.5]];portConstraint=eastwest;whiteSpace=wrap;html=1;" parent="KLQyToDOkxuxc8WSjmjW-1" vertex="1">
          <mxGeometry y="156" width="180" height="26" as="geometry" />
        </mxCell>
        <mxCell id="KLQyToDOkxuxc8WSjmjW-11" value="gender: CHAR(1)" style="text;strokeColor=none;fillColor=none;align=left;verticalAlign=top;spacingLeft=4;spacingRight=4;overflow=hidden;rotatable=0;points=[[0,0.5],[1,0.5]];portConstraint=eastwest;whiteSpace=wrap;html=1;" parent="KLQyToDOkxuxc8WSjmjW-1" vertex="1">
          <mxGeometry y="182" width="180" height="26" as="geometry" />
        </mxCell>
        <mxCell id="KLQyToDOkxuxc8WSjmjW-10" value="job:VARCHAR(100)" style="text;strokeColor=none;fillColor=none;align=left;verticalAlign=top;spacingLeft=4;spacingRight=4;overflow=hidden;rotatable=0;points=[[0,0.5],[1,0.5]];portConstraint=eastwest;whiteSpace=wrap;html=1;" parent="KLQyToDOkxuxc8WSjmjW-1" vertex="1">
          <mxGeometry y="208" width="180" height="26" as="geometry" />
        </mxCell>
        <mxCell id="KLQyToDOkxuxc8WSjmjW-9" value="phone_number: VARCHAR(15)" style="text;strokeColor=none;fillColor=none;align=left;verticalAlign=top;spacingLeft=4;spacingRight=4;overflow=hidden;rotatable=0;points=[[0,0.5],[1,0.5]];portConstraint=eastwest;whiteSpace=wrap;html=1;" parent="KLQyToDOkxuxc8WSjmjW-1" vertex="1">
          <mxGeometry y="234" width="180" height="26" as="geometry" />
        </mxCell>
        <mxCell id="KLQyToDOkxuxc8WSjmjW-8" value="birth_date: DATE" style="text;strokeColor=none;fillColor=none;align=left;verticalAlign=top;spacingLeft=4;spacingRight=4;overflow=hidden;rotatable=0;points=[[0,0.5],[1,0.5]];portConstraint=eastwest;whiteSpace=wrap;html=1;" parent="KLQyToDOkxuxc8WSjmjW-1" vertex="1">
          <mxGeometry y="260" width="180" height="26" as="geometry" />
        </mxCell>
        <mxCell id="KLQyToDOkxuxc8WSjmjW-7" value="is_admin: BOOLEAN" style="text;strokeColor=none;fillColor=none;align=left;verticalAlign=top;spacingLeft=4;spacingRight=4;overflow=hidden;rotatable=0;points=[[0,0.5],[1,0.5]];portConstraint=eastwest;whiteSpace=wrap;html=1;" parent="KLQyToDOkxuxc8WSjmjW-1" vertex="1">
          <mxGeometry y="286" width="180" height="26" as="geometry" />
        </mxCell>
        <mxCell id="KLQyToDOkxuxc8WSjmjW-5" value="username: VARCHAR(20)" style="text;strokeColor=none;fillColor=none;align=left;verticalAlign=top;spacingLeft=4;spacingRight=4;overflow=hidden;rotatable=0;points=[[0,0.5],[1,0.5]];portConstraint=eastwest;whiteSpace=wrap;html=1;" parent="KLQyToDOkxuxc8WSjmjW-1" vertex="1">
          <mxGeometry y="312" width="180" height="26" as="geometry" />
        </mxCell>
        <mxCell id="KLQyToDOkxuxc8WSjmjW-14" value="created_at: DATETIME" style="text;strokeColor=none;fillColor=none;align=left;verticalAlign=top;spacingLeft=4;spacingRight=4;overflow=hidden;rotatable=0;points=[[0,0.5],[1,0.5]];portConstraint=eastwest;whiteSpace=wrap;html=1;" parent="KLQyToDOkxuxc8WSjmjW-1" vertex="1">
          <mxGeometry y="338" width="180" height="26" as="geometry" />
        </mxCell>
        <mxCell id="KLQyToDOkxuxc8WSjmjW-15" value="updated_at: DATETIME" style="text;strokeColor=none;fillColor=none;align=left;verticalAlign=top;spacingLeft=4;spacingRight=4;overflow=hidden;rotatable=0;points=[[0,0.5],[1,0.5]];portConstraint=eastwest;whiteSpace=wrap;html=1;" parent="KLQyToDOkxuxc8WSjmjW-1" vertex="1">
          <mxGeometry y="364" width="180" height="26" as="geometry" />
        </mxCell>
        <mxCell id="KLQyToDOkxuxc8WSjmjW-17" value="cart_id: INT" style="text;strokeColor=none;fillColor=none;align=left;verticalAlign=top;spacingLeft=4;spacingRight=4;overflow=hidden;rotatable=0;points=[[0,0.5],[1,0.5]];portConstraint=eastwest;whiteSpace=wrap;html=1;" parent="KLQyToDOkxuxc8WSjmjW-1" vertex="1">
          <mxGeometry y="390" width="180" height="26" as="geometry" />
        </mxCell>
        <mxCell id="KLQyToDOkxuxc8WSjmjW-16" value="wishlist_id: INT" style="text;strokeColor=none;fillColor=none;align=left;verticalAlign=top;spacingLeft=4;spacingRight=4;overflow=hidden;rotatable=0;points=[[0,0.5],[1,0.5]];portConstraint=eastwest;whiteSpace=wrap;html=1;" parent="KLQyToDOkxuxc8WSjmjW-1" vertex="1">
          <mxGeometry y="416" width="180" height="26" as="geometry" />
        </mxCell>
        <mxCell id="KLQyToDOkxuxc8WSjmjW-18" value="CARTS" style="swimlane;fontStyle=0;childLayout=stackLayout;horizontal=1;startSize=26;fillColor=#0050ef;horizontalStack=0;resizeParent=1;resizeParentMax=0;resizeLast=0;collapsible=1;marginBottom=0;whiteSpace=wrap;html=1;strokeColor=#001DBC;gradientColor=none;" parent="1" vertex="1">
          <mxGeometry x="770" y="697" width="180" height="78" as="geometry" />
        </mxCell>
        <mxCell id="KLQyToDOkxuxc8WSjmjW-19" value="id: INT" style="text;strokeColor=none;fillColor=none;align=left;verticalAlign=top;spacingLeft=4;spacingRight=4;overflow=hidden;rotatable=0;points=[[0,0.5],[1,0.5]];portConstraint=eastwest;whiteSpace=wrap;html=1;" parent="KLQyToDOkxuxc8WSjmjW-18" vertex="1">
          <mxGeometry y="26" width="180" height="26" as="geometry" />
        </mxCell>
        <mxCell id="KLQyToDOkxuxc8WSjmjW-20" value="user_id: INT" style="text;strokeColor=none;fillColor=none;align=left;verticalAlign=top;spacingLeft=4;spacingRight=4;overflow=hidden;rotatable=0;points=[[0,0.5],[1,0.5]];portConstraint=eastwest;whiteSpace=wrap;html=1;" parent="KLQyToDOkxuxc8WSjmjW-18" vertex="1">
          <mxGeometry y="52" width="180" height="26" as="geometry" />
        </mxCell>
        <mxCell id="KLQyToDOkxuxc8WSjmjW-35" value="WISHLISTS" style="swimlane;fontStyle=0;childLayout=stackLayout;horizontal=1;startSize=26;fillColor=#0050ef;horizontalStack=0;resizeParent=1;resizeParentMax=0;resizeLast=0;collapsible=1;marginBottom=0;whiteSpace=wrap;html=1;strokeColor=#001DBC;gradientColor=none;" parent="1" vertex="1">
          <mxGeometry x="750" y="832" width="180" height="78" as="geometry" />
        </mxCell>
        <mxCell id="KLQyToDOkxuxc8WSjmjW-36" value="id: INT" style="text;strokeColor=none;fillColor=none;align=left;verticalAlign=top;spacingLeft=4;spacingRight=4;overflow=hidden;rotatable=0;points=[[0,0.5],[1,0.5]];portConstraint=eastwest;whiteSpace=wrap;html=1;" parent="KLQyToDOkxuxc8WSjmjW-35" vertex="1">
          <mxGeometry y="26" width="180" height="26" as="geometry" />
        </mxCell>
        <mxCell id="KLQyToDOkxuxc8WSjmjW-37" value="user_id: INT" style="text;strokeColor=none;fillColor=none;align=left;verticalAlign=top;spacingLeft=4;spacingRight=4;overflow=hidden;rotatable=0;points=[[0,0.5],[1,0.5]];portConstraint=eastwest;whiteSpace=wrap;html=1;" parent="KLQyToDOkxuxc8WSjmjW-35" vertex="1">
          <mxGeometry y="52" width="180" height="26" as="geometry" />
        </mxCell>
        <mxCell id="KLQyToDOkxuxc8WSjmjW-38" value="ORDERS" style="swimlane;fontStyle=0;childLayout=stackLayout;horizontal=1;startSize=26;fillColor=#0050ef;horizontalStack=0;resizeParent=1;resizeParentMax=0;resizeLast=0;collapsible=1;marginBottom=0;whiteSpace=wrap;html=1;strokeColor=#001DBC;gradientColor=none;" parent="1" vertex="1">
          <mxGeometry x="730" y="495" width="250" height="156" as="geometry" />
        </mxCell>
        <mxCell id="KLQyToDOkxuxc8WSjmjW-39" value="id: INT" style="text;strokeColor=none;fillColor=none;align=left;verticalAlign=top;spacingLeft=4;spacingRight=4;overflow=hidden;rotatable=0;points=[[0,0.5],[1,0.5]];portConstraint=eastwest;whiteSpace=wrap;html=1;" parent="KLQyToDOkxuxc8WSjmjW-38" vertex="1">
          <mxGeometry y="26" width="250" height="26" as="geometry" />
        </mxCell>
        <mxCell id="KLQyToDOkxuxc8WSjmjW-40" value="order_date: DATETIME" style="text;strokeColor=none;fillColor=none;align=left;verticalAlign=top;spacingLeft=4;spacingRight=4;overflow=hidden;rotatable=0;points=[[0,0.5],[1,0.5]];portConstraint=eastwest;whiteSpace=wrap;html=1;" parent="KLQyToDOkxuxc8WSjmjW-38" vertex="1">
          <mxGeometry y="52" width="250" height="26" as="geometry" />
        </mxCell>
        <mxCell id="KLQyToDOkxuxc8WSjmjW-41" value="status: ENUM(&#39;CREATED&#39;, &#39;CANCELED&#39; ...)" style="text;strokeColor=none;fillColor=none;align=left;verticalAlign=top;spacingLeft=4;spacingRight=4;overflow=hidden;rotatable=0;points=[[0,0.5],[1,0.5]];portConstraint=eastwest;whiteSpace=wrap;html=1;" parent="KLQyToDOkxuxc8WSjmjW-38" vertex="1">
          <mxGeometry y="78" width="250" height="26" as="geometry" />
        </mxCell>
        <mxCell id="KLQyToDOkxuxc8WSjmjW-53" value="total_price: DECIMAL(10,2)" style="text;strokeColor=none;fillColor=none;align=left;verticalAlign=top;spacingLeft=4;spacingRight=4;overflow=hidden;rotatable=0;points=[[0,0.5],[1,0.5]];portConstraint=eastwest;whiteSpace=wrap;html=1;" parent="KLQyToDOkxuxc8WSjmjW-38" vertex="1">
          <mxGeometry y="104" width="250" height="26" as="geometry" />
        </mxCell>
        <mxCell id="KLQyToDOkxuxc8WSjmjW-54" value="user_id: INT" style="text;strokeColor=none;fillColor=none;align=left;verticalAlign=top;spacingLeft=4;spacingRight=4;overflow=hidden;rotatable=0;points=[[0,0.5],[1,0.5]];portConstraint=eastwest;whiteSpace=wrap;html=1;" parent="KLQyToDOkxuxc8WSjmjW-38" vertex="1">
          <mxGeometry y="130" width="250" height="26" as="geometry" />
        </mxCell>
        <mxCell id="KLQyToDOkxuxc8WSjmjW-55" value="CATEGORIES" style="swimlane;fontStyle=0;childLayout=stackLayout;horizontal=1;startSize=26;fillColor=#0050ef;horizontalStack=0;resizeParent=1;resizeParentMax=0;resizeLast=0;collapsible=1;marginBottom=0;whiteSpace=wrap;html=1;fontColor=#ffffff;strokeColor=#001DBC;gradientColor=none;" parent="1" vertex="1">
          <mxGeometry x="1490" y="390" width="180" height="208" as="geometry" />
        </mxCell>
        <mxCell id="KLQyToDOkxuxc8WSjmjW-56" value="id: INT" style="text;strokeColor=none;fillColor=none;align=left;verticalAlign=top;spacingLeft=4;spacingRight=4;overflow=hidden;rotatable=0;points=[[0,0.5],[1,0.5]];portConstraint=eastwest;whiteSpace=wrap;html=1;" parent="KLQyToDOkxuxc8WSjmjW-55" vertex="1">
          <mxGeometry y="26" width="180" height="26" as="geometry" />
        </mxCell>
        <mxCell id="KLQyToDOkxuxc8WSjmjW-57" value="name: VARCHAR(50)" style="text;strokeColor=none;fillColor=none;align=left;verticalAlign=top;spacingLeft=4;spacingRight=4;overflow=hidden;rotatable=0;points=[[0,0.5],[1,0.5]];portConstraint=eastwest;whiteSpace=wrap;html=1;" parent="KLQyToDOkxuxc8WSjmjW-55" vertex="1">
          <mxGeometry y="52" width="180" height="26" as="geometry" />
        </mxCell>
        <mxCell id="KLQyToDOkxuxc8WSjmjW-58" value="description: VARCHAR(1500)" style="text;strokeColor=none;fillColor=none;align=left;verticalAlign=top;spacingLeft=4;spacingRight=4;overflow=hidden;rotatable=0;points=[[0,0.5],[1,0.5]];portConstraint=eastwest;whiteSpace=wrap;html=1;" parent="KLQyToDOkxuxc8WSjmjW-55" vertex="1">
          <mxGeometry y="78" width="180" height="26" as="geometry" />
        </mxCell>
        <mxCell id="KLQyToDOkxuxc8WSjmjW-63" value="image_source: VARCHAR(200)" style="text;strokeColor=none;fillColor=none;align=left;verticalAlign=top;spacingLeft=4;spacingRight=4;overflow=hidden;rotatable=0;points=[[0,0.5],[1,0.5]];portConstraint=eastwest;whiteSpace=wrap;html=1;" parent="KLQyToDOkxuxc8WSjmjW-55" vertex="1">
          <mxGeometry y="104" width="180" height="26" as="geometry" />
        </mxCell>
        <mxCell id="KLQyToDOkxuxc8WSjmjW-59" value="created_at: DATETIME" style="text;strokeColor=none;fillColor=none;align=left;verticalAlign=top;spacingLeft=4;spacingRight=4;overflow=hidden;rotatable=0;points=[[0,0.5],[1,0.5]];portConstraint=eastwest;whiteSpace=wrap;html=1;" parent="KLQyToDOkxuxc8WSjmjW-55" vertex="1">
          <mxGeometry y="130" width="180" height="26" as="geometry" />
        </mxCell>
        <mxCell id="KLQyToDOkxuxc8WSjmjW-60" value="updated_at: DATETIME" style="text;strokeColor=none;fillColor=none;align=left;verticalAlign=top;spacingLeft=4;spacingRight=4;overflow=hidden;rotatable=0;points=[[0,0.5],[1,0.5]];portConstraint=eastwest;whiteSpace=wrap;html=1;" parent="KLQyToDOkxuxc8WSjmjW-55" vertex="1">
          <mxGeometry y="156" width="180" height="26" as="geometry" />
        </mxCell>
        <mxCell id="KLQyToDOkxuxc8WSjmjW-61" value="parent_id: INT" style="text;strokeColor=none;fillColor=none;align=left;verticalAlign=top;spacingLeft=4;spacingRight=4;overflow=hidden;rotatable=0;points=[[0,0.5],[1,0.5]];portConstraint=eastwest;whiteSpace=wrap;html=1;" parent="KLQyToDOkxuxc8WSjmjW-55" vertex="1">
          <mxGeometry y="182" width="180" height="26" as="geometry" />
        </mxCell>
        <mxCell id="KLQyToDOkxuxc8WSjmjW-64" value="PRODUCTS" style="swimlane;fontStyle=0;childLayout=stackLayout;horizontal=1;startSize=26;fillColor=#0050ef;horizontalStack=0;resizeParent=1;resizeParentMax=0;resizeLast=0;collapsible=1;marginBottom=0;whiteSpace=wrap;html=1;strokeColor=#001DBC;gradientColor=none;" parent="1" vertex="1">
          <mxGeometry x="1500" y="794" width="180" height="286" as="geometry" />
        </mxCell>
        <mxCell id="KLQyToDOkxuxc8WSjmjW-65" value="id: INT" style="text;strokeColor=none;fillColor=none;align=left;verticalAlign=top;spacingLeft=4;spacingRight=4;overflow=hidden;rotatable=0;points=[[0,0.5],[1,0.5]];portConstraint=eastwest;whiteSpace=wrap;html=1;" parent="KLQyToDOkxuxc8WSjmjW-64" vertex="1">
          <mxGeometry y="26" width="180" height="26" as="geometry" />
        </mxCell>
        <mxCell id="KLQyToDOkxuxc8WSjmjW-66" value="name: VARCHAR(150)" style="text;strokeColor=none;fillColor=none;align=left;verticalAlign=top;spacingLeft=4;spacingRight=4;overflow=hidden;rotatable=0;points=[[0,0.5],[1,0.5]];portConstraint=eastwest;whiteSpace=wrap;html=1;" parent="KLQyToDOkxuxc8WSjmjW-64" vertex="1">
          <mxGeometry y="52" width="180" height="26" as="geometry" />
        </mxCell>
        <mxCell id="KLQyToDOkxuxc8WSjmjW-67" value="description: VARCHAR(1500)" style="text;strokeColor=none;fillColor=none;align=left;verticalAlign=top;spacingLeft=4;spacingRight=4;overflow=hidden;rotatable=0;points=[[0,0.5],[1,0.5]];portConstraint=eastwest;whiteSpace=wrap;html=1;" parent="KLQyToDOkxuxc8WSjmjW-64" vertex="1">
          <mxGeometry y="78" width="180" height="26" as="geometry" />
        </mxCell>
        <mxCell id="KLQyToDOkxuxc8WSjmjW-68" value="price: DECIMAL(10,2)" style="text;strokeColor=none;fillColor=none;align=left;verticalAlign=top;spacingLeft=4;spacingRight=4;overflow=hidden;rotatable=0;points=[[0,0.5],[1,0.5]];portConstraint=eastwest;whiteSpace=wrap;html=1;" parent="KLQyToDOkxuxc8WSjmjW-64" vertex="1">
          <mxGeometry y="104" width="180" height="26" as="geometry" />
        </mxCell>
        <mxCell id="KLQyToDOkxuxc8WSjmjW-69" value="quantity: TINYINT UNSIGNED" style="text;strokeColor=none;fillColor=none;align=left;verticalAlign=top;spacingLeft=4;spacingRight=4;overflow=hidden;rotatable=0;points=[[0,0.5],[1,0.5]];portConstraint=eastwest;whiteSpace=wrap;html=1;" parent="KLQyToDOkxuxc8WSjmjW-64" vertex="1">
          <mxGeometry y="130" width="180" height="26" as="geometry" />
        </mxCell>
        <mxCell id="KLQyToDOkxuxc8WSjmjW-73" value="brand: VARCHAR(100)" style="text;strokeColor=none;fillColor=none;align=left;verticalAlign=top;spacingLeft=4;spacingRight=4;overflow=hidden;rotatable=0;points=[[0,0.5],[1,0.5]];portConstraint=eastwest;whiteSpace=wrap;html=1;" parent="KLQyToDOkxuxc8WSjmjW-64" vertex="1">
          <mxGeometry y="156" width="180" height="26" as="geometry" />
        </mxCell>
        <mxCell id="KLQyToDOkxuxc8WSjmjW-74" value="model: VARCHAR(100)" style="text;strokeColor=none;fillColor=none;align=left;verticalAlign=top;spacingLeft=4;spacingRight=4;overflow=hidden;rotatable=0;points=[[0,0.5],[1,0.5]];portConstraint=eastwest;whiteSpace=wrap;html=1;" parent="KLQyToDOkxuxc8WSjmjW-64" vertex="1">
          <mxGeometry y="182" width="180" height="26" as="geometry" />
        </mxCell>
        <mxCell id="KLQyToDOkxuxc8WSjmjW-72" value="created_at: DATETIME" style="text;strokeColor=none;fillColor=none;align=left;verticalAlign=top;spacingLeft=4;spacingRight=4;overflow=hidden;rotatable=0;points=[[0,0.5],[1,0.5]];portConstraint=eastwest;whiteSpace=wrap;html=1;" parent="KLQyToDOkxuxc8WSjmjW-64" vertex="1">
          <mxGeometry y="208" width="180" height="26" as="geometry" />
        </mxCell>
        <mxCell id="KLQyToDOkxuxc8WSjmjW-70" value="updated_at: DATETIME" style="text;strokeColor=none;fillColor=none;align=left;verticalAlign=top;spacingLeft=4;spacingRight=4;overflow=hidden;rotatable=0;points=[[0,0.5],[1,0.5]];portConstraint=eastwest;whiteSpace=wrap;html=1;" parent="KLQyToDOkxuxc8WSjmjW-64" vertex="1">
          <mxGeometry y="234" width="180" height="26" as="geometry" />
        </mxCell>
        <mxCell id="KLQyToDOkxuxc8WSjmjW-71" value="category_id: INT" style="text;strokeColor=none;fillColor=none;align=left;verticalAlign=top;spacingLeft=4;spacingRight=4;overflow=hidden;rotatable=0;points=[[0,0.5],[1,0.5]];portConstraint=eastwest;whiteSpace=wrap;html=1;" parent="KLQyToDOkxuxc8WSjmjW-64" vertex="1">
          <mxGeometry y="260" width="180" height="26" as="geometry" />
        </mxCell>
        <mxCell id="KLQyToDOkxuxc8WSjmjW-75" value="ATTRIBUTES" style="swimlane;fontStyle=0;childLayout=stackLayout;horizontal=1;startSize=26;fillColor=#0050ef;horizontalStack=0;resizeParent=1;resizeParentMax=0;resizeLast=0;collapsible=1;marginBottom=0;whiteSpace=wrap;html=1;strokeColor=#001DBC;gradientColor=none;" parent="1" vertex="1">
          <mxGeometry x="1870" y="603" width="180" height="104" as="geometry" />
        </mxCell>
        <mxCell id="KLQyToDOkxuxc8WSjmjW-76" value="id: INT" style="text;strokeColor=none;fillColor=none;align=left;verticalAlign=top;spacingLeft=4;spacingRight=4;overflow=hidden;rotatable=0;points=[[0,0.5],[1,0.5]];portConstraint=eastwest;whiteSpace=wrap;html=1;" parent="KLQyToDOkxuxc8WSjmjW-75" vertex="1">
          <mxGeometry y="26" width="180" height="26" as="geometry" />
        </mxCell>
        <mxCell id="KLQyToDOkxuxc8WSjmjW-77" value="name: VARCHAR(50)" style="text;strokeColor=none;fillColor=none;align=left;verticalAlign=top;spacingLeft=4;spacingRight=4;overflow=hidden;rotatable=0;points=[[0,0.5],[1,0.5]];portConstraint=eastwest;whiteSpace=wrap;html=1;" parent="KLQyToDOkxuxc8WSjmjW-75" vertex="1">
          <mxGeometry y="52" width="180" height="26" as="geometry" />
        </mxCell>
        <mxCell id="KLQyToDOkxuxc8WSjmjW-78" value="category_id: INT" style="text;strokeColor=none;fillColor=none;align=left;verticalAlign=top;spacingLeft=4;spacingRight=4;overflow=hidden;rotatable=0;points=[[0,0.5],[1,0.5]];portConstraint=eastwest;whiteSpace=wrap;html=1;" parent="KLQyToDOkxuxc8WSjmjW-75" vertex="1">
          <mxGeometry y="78" width="180" height="26" as="geometry" />
        </mxCell>
        <mxCell id="KLQyToDOkxuxc8WSjmjW-79" value="ATTRIBUTE_VALUES" style="swimlane;fontStyle=0;childLayout=stackLayout;horizontal=1;startSize=26;fillColor=#0050ef;horizontalStack=0;resizeParent=1;resizeParentMax=0;resizeLast=0;collapsible=1;marginBottom=0;whiteSpace=wrap;html=1;strokeColor=#001DBC;gradientColor=none;" parent="1" vertex="1">
          <mxGeometry x="1870" y="740" width="180" height="130" as="geometry" />
        </mxCell>
        <mxCell id="KLQyToDOkxuxc8WSjmjW-80" value="id: INT" style="text;strokeColor=none;fillColor=none;align=left;verticalAlign=top;spacingLeft=4;spacingRight=4;overflow=hidden;rotatable=0;points=[[0,0.5],[1,0.5]];portConstraint=eastwest;whiteSpace=wrap;html=1;" parent="KLQyToDOkxuxc8WSjmjW-79" vertex="1">
          <mxGeometry y="26" width="180" height="26" as="geometry" />
        </mxCell>
        <mxCell id="KLQyToDOkxuxc8WSjmjW-81" value="value: VARCHAR(100)" style="text;strokeColor=none;fillColor=none;align=left;verticalAlign=top;spacingLeft=4;spacingRight=4;overflow=hidden;rotatable=0;points=[[0,0.5],[1,0.5]];portConstraint=eastwest;whiteSpace=wrap;html=1;" parent="KLQyToDOkxuxc8WSjmjW-79" vertex="1">
          <mxGeometry y="52" width="180" height="26" as="geometry" />
        </mxCell>
        <mxCell id="KLQyToDOkxuxc8WSjmjW-82" value="attribute_id: INT" style="text;strokeColor=none;fillColor=none;align=left;verticalAlign=top;spacingLeft=4;spacingRight=4;overflow=hidden;rotatable=0;points=[[0,0.5],[1,0.5]];portConstraint=eastwest;whiteSpace=wrap;html=1;" parent="KLQyToDOkxuxc8WSjmjW-79" vertex="1">
          <mxGeometry y="78" width="180" height="26" as="geometry" />
        </mxCell>
        <mxCell id="KLQyToDOkxuxc8WSjmjW-83" value="product_id: INT" style="text;strokeColor=none;fillColor=none;align=left;verticalAlign=top;spacingLeft=4;spacingRight=4;overflow=hidden;rotatable=0;points=[[0,0.5],[1,0.5]];portConstraint=eastwest;whiteSpace=wrap;html=1;" parent="KLQyToDOkxuxc8WSjmjW-79" vertex="1">
          <mxGeometry y="104" width="180" height="26" as="geometry" />
        </mxCell>
        <mxCell id="KLQyToDOkxuxc8WSjmjW-84" value="PRODUCT_IMAGES" style="swimlane;fontStyle=0;childLayout=stackLayout;horizontal=1;startSize=26;fillColor=#0050ef;horizontalStack=0;resizeParent=1;resizeParentMax=0;resizeLast=0;collapsible=1;marginBottom=0;whiteSpace=wrap;html=1;strokeColor=#001DBC;gradientColor=none;" parent="1" vertex="1">
          <mxGeometry x="1870" y="920" width="180" height="208" as="geometry" />
        </mxCell>
        <mxCell id="KLQyToDOkxuxc8WSjmjW-85" value="id: INT" style="text;strokeColor=none;fillColor=none;align=left;verticalAlign=top;spacingLeft=4;spacingRight=4;overflow=hidden;rotatable=0;points=[[0,0.5],[1,0.5]];portConstraint=eastwest;whiteSpace=wrap;html=1;" parent="KLQyToDOkxuxc8WSjmjW-84" vertex="1">
          <mxGeometry y="26" width="180" height="26" as="geometry" />
        </mxCell>
        <mxCell id="KLQyToDOkxuxc8WSjmjW-86" value="image_url: VARCHAR(200)" style="text;strokeColor=none;fillColor=none;align=left;verticalAlign=top;spacingLeft=4;spacingRight=4;overflow=hidden;rotatable=0;points=[[0,0.5],[1,0.5]];portConstraint=eastwest;whiteSpace=wrap;html=1;" parent="KLQyToDOkxuxc8WSjmjW-84" vertex="1">
          <mxGeometry y="52" width="180" height="26" as="geometry" />
        </mxCell>
        <mxCell id="KLQyToDOkxuxc8WSjmjW-87" value="image_order: TINYINT" style="text;strokeColor=none;fillColor=none;align=left;verticalAlign=top;spacingLeft=4;spacingRight=4;overflow=hidden;rotatable=0;points=[[0,0.5],[1,0.5]];portConstraint=eastwest;whiteSpace=wrap;html=1;" parent="KLQyToDOkxuxc8WSjmjW-84" vertex="1">
          <mxGeometry y="78" width="180" height="26" as="geometry" />
        </mxCell>
        <mxCell id="KLQyToDOkxuxc8WSjmjW-88" value="is_primary: BOOLEAN" style="text;strokeColor=none;fillColor=none;align=left;verticalAlign=top;spacingLeft=4;spacingRight=4;overflow=hidden;rotatable=0;points=[[0,0.5],[1,0.5]];portConstraint=eastwest;whiteSpace=wrap;html=1;" parent="KLQyToDOkxuxc8WSjmjW-84" vertex="1">
          <mxGeometry y="104" width="180" height="26" as="geometry" />
        </mxCell>
        <mxCell id="KLQyToDOkxuxc8WSjmjW-92" value="created_at: DATETIME" style="text;strokeColor=none;fillColor=none;align=left;verticalAlign=top;spacingLeft=4;spacingRight=4;overflow=hidden;rotatable=0;points=[[0,0.5],[1,0.5]];portConstraint=eastwest;whiteSpace=wrap;html=1;" parent="KLQyToDOkxuxc8WSjmjW-84" vertex="1">
          <mxGeometry y="130" width="180" height="26" as="geometry" />
        </mxCell>
        <mxCell id="KLQyToDOkxuxc8WSjmjW-93" value="updated_at: DATETIME" style="text;strokeColor=none;fillColor=none;align=left;verticalAlign=top;spacingLeft=4;spacingRight=4;overflow=hidden;rotatable=0;points=[[0,0.5],[1,0.5]];portConstraint=eastwest;whiteSpace=wrap;html=1;" parent="KLQyToDOkxuxc8WSjmjW-84" vertex="1">
          <mxGeometry y="156" width="180" height="26" as="geometry" />
        </mxCell>
        <mxCell id="KLQyToDOkxuxc8WSjmjW-94" value="product_id: INT" style="text;strokeColor=none;fillColor=none;align=left;verticalAlign=top;spacingLeft=4;spacingRight=4;overflow=hidden;rotatable=0;points=[[0,0.5],[1,0.5]];portConstraint=eastwest;whiteSpace=wrap;html=1;" parent="KLQyToDOkxuxc8WSjmjW-84" vertex="1">
          <mxGeometry y="182" width="180" height="26" as="geometry" />
        </mxCell>
        <mxCell id="KLQyToDOkxuxc8WSjmjW-95" value="REVIEWS" style="swimlane;fontStyle=0;childLayout=stackLayout;horizontal=1;startSize=26;fillColor=#0050ef;horizontalStack=0;resizeParent=1;resizeParentMax=0;resizeLast=0;collapsible=1;marginBottom=0;whiteSpace=wrap;html=1;strokeColor=#001DBC;" parent="1" vertex="1">
          <mxGeometry x="880" y="980" width="180" height="234" as="geometry" />
        </mxCell>
        <mxCell id="KLQyToDOkxuxc8WSjmjW-96" value="id: INT" style="text;strokeColor=#001DBC;fillColor=none;align=left;verticalAlign=top;spacingLeft=4;spacingRight=4;overflow=hidden;rotatable=0;points=[[0,0.5],[1,0.5]];portConstraint=eastwest;whiteSpace=wrap;html=1;gradientColor=none;" parent="KLQyToDOkxuxc8WSjmjW-95" vertex="1">
          <mxGeometry y="26" width="180" height="26" as="geometry" />
        </mxCell>
        <mxCell id="KLQyToDOkxuxc8WSjmjW-97" value="rating: TINYINT" style="text;strokeColor=none;fillColor=none;align=left;verticalAlign=top;spacingLeft=4;spacingRight=4;overflow=hidden;rotatable=0;points=[[0,0.5],[1,0.5]];portConstraint=eastwest;whiteSpace=wrap;html=1;" parent="KLQyToDOkxuxc8WSjmjW-95" vertex="1">
          <mxGeometry y="52" width="180" height="26" as="geometry" />
        </mxCell>
        <mxCell id="KLQyToDOkxuxc8WSjmjW-98" value="title: VARCHAR(50)" style="text;strokeColor=none;fillColor=none;align=left;verticalAlign=top;spacingLeft=4;spacingRight=4;overflow=hidden;rotatable=0;points=[[0,0.5],[1,0.5]];portConstraint=eastwest;whiteSpace=wrap;html=1;" parent="KLQyToDOkxuxc8WSjmjW-95" vertex="1">
          <mxGeometry y="78" width="180" height="26" as="geometry" />
        </mxCell>
        <mxCell id="KLQyToDOkxuxc8WSjmjW-99" value="text: VARCHAR(500)" style="text;strokeColor=none;fillColor=none;align=left;verticalAlign=top;spacingLeft=4;spacingRight=4;overflow=hidden;rotatable=0;points=[[0,0.5],[1,0.5]];portConstraint=eastwest;whiteSpace=wrap;html=1;" parent="KLQyToDOkxuxc8WSjmjW-95" vertex="1">
          <mxGeometry y="104" width="180" height="26" as="geometry" />
        </mxCell>
        <mxCell id="KLQyToDOkxuxc8WSjmjW-103" value="created_at: DATETIME" style="text;strokeColor=none;fillColor=none;align=left;verticalAlign=top;spacingLeft=4;spacingRight=4;overflow=hidden;rotatable=0;points=[[0,0.5],[1,0.5]];portConstraint=eastwest;whiteSpace=wrap;html=1;" parent="KLQyToDOkxuxc8WSjmjW-95" vertex="1">
          <mxGeometry y="130" width="180" height="26" as="geometry" />
        </mxCell>
        <mxCell id="KLQyToDOkxuxc8WSjmjW-104" value="updated_at: DATETIME" style="text;strokeColor=none;fillColor=none;align=left;verticalAlign=top;spacingLeft=4;spacingRight=4;overflow=hidden;rotatable=0;points=[[0,0.5],[1,0.5]];portConstraint=eastwest;whiteSpace=wrap;html=1;" parent="KLQyToDOkxuxc8WSjmjW-95" vertex="1">
          <mxGeometry y="156" width="180" height="26" as="geometry" />
        </mxCell>
        <mxCell id="KLQyToDOkxuxc8WSjmjW-105" value="product_id: INT" style="text;strokeColor=none;fillColor=none;align=left;verticalAlign=top;spacingLeft=4;spacingRight=4;overflow=hidden;rotatable=0;points=[[0,0.5],[1,0.5]];portConstraint=eastwest;whiteSpace=wrap;html=1;" parent="KLQyToDOkxuxc8WSjmjW-95" vertex="1">
          <mxGeometry y="182" width="180" height="26" as="geometry" />
        </mxCell>
        <mxCell id="KLQyToDOkxuxc8WSjmjW-106" value="user_id: INT" style="text;strokeColor=none;fillColor=none;align=left;verticalAlign=top;spacingLeft=4;spacingRight=4;overflow=hidden;rotatable=0;points=[[0,0.5],[1,0.5]];portConstraint=eastwest;whiteSpace=wrap;html=1;" parent="KLQyToDOkxuxc8WSjmjW-95" vertex="1">
          <mxGeometry y="208" width="180" height="26" as="geometry" />
        </mxCell>
        <mxCell id="KLQyToDOkxuxc8WSjmjW-107" value="CART_ITEMS" style="swimlane;fontStyle=0;childLayout=stackLayout;horizontal=1;startSize=26;fillColor=#0050ef;horizontalStack=0;resizeParent=1;resizeParentMax=0;resizeLast=0;collapsible=1;marginBottom=0;whiteSpace=wrap;html=1;strokeColor=#001DBC;gradientColor=none;" parent="1" vertex="1">
          <mxGeometry x="1100" y="660" width="190" height="130" as="geometry" />
        </mxCell>
        <mxCell id="KLQyToDOkxuxc8WSjmjW-108" value="id: INT" style="text;strokeColor=none;fillColor=none;align=left;verticalAlign=top;spacingLeft=4;spacingRight=4;overflow=hidden;rotatable=0;points=[[0,0.5],[1,0.5]];portConstraint=eastwest;whiteSpace=wrap;html=1;" parent="KLQyToDOkxuxc8WSjmjW-107" vertex="1">
          <mxGeometry y="26" width="190" height="26" as="geometry" />
        </mxCell>
        <mxCell id="KLQyToDOkxuxc8WSjmjW-109" value="quantity: TINYINT UNSIGNED" style="text;strokeColor=none;fillColor=none;align=left;verticalAlign=top;spacingLeft=4;spacingRight=4;overflow=hidden;rotatable=0;points=[[0,0.5],[1,0.5]];portConstraint=eastwest;whiteSpace=wrap;html=1;" parent="KLQyToDOkxuxc8WSjmjW-107" vertex="1">
          <mxGeometry y="52" width="190" height="26" as="geometry" />
        </mxCell>
        <mxCell id="KLQyToDOkxuxc8WSjmjW-110" value="cart_id: INT" style="text;strokeColor=none;fillColor=none;align=left;verticalAlign=top;spacingLeft=4;spacingRight=4;overflow=hidden;rotatable=0;points=[[0,0.5],[1,0.5]];portConstraint=eastwest;whiteSpace=wrap;html=1;" parent="KLQyToDOkxuxc8WSjmjW-107" vertex="1">
          <mxGeometry y="78" width="190" height="26" as="geometry" />
        </mxCell>
        <mxCell id="KLQyToDOkxuxc8WSjmjW-111" value="product_id: INT" style="text;strokeColor=none;fillColor=none;align=left;verticalAlign=top;spacingLeft=4;spacingRight=4;overflow=hidden;rotatable=0;points=[[0,0.5],[1,0.5]];portConstraint=eastwest;whiteSpace=wrap;html=1;" parent="KLQyToDOkxuxc8WSjmjW-107" vertex="1">
          <mxGeometry y="104" width="190" height="26" as="geometry" />
        </mxCell>
        <mxCell id="KLQyToDOkxuxc8WSjmjW-113" value="WISHLIST_ITEMS" style="swimlane;fontStyle=0;childLayout=stackLayout;horizontal=1;startSize=26;fillColor=#0050ef;horizontalStack=0;resizeParent=1;resizeParentMax=0;resizeLast=0;collapsible=1;marginBottom=0;whiteSpace=wrap;html=1;strokeColor=#001DBC;gradientColor=none;" parent="1" vertex="1">
          <mxGeometry x="1100" y="841" width="190" height="104" as="geometry" />
        </mxCell>
        <mxCell id="KLQyToDOkxuxc8WSjmjW-114" value="id: INT" style="text;strokeColor=none;fillColor=none;align=left;verticalAlign=top;spacingLeft=4;spacingRight=4;overflow=hidden;rotatable=0;points=[[0,0.5],[1,0.5]];portConstraint=eastwest;whiteSpace=wrap;html=1;" parent="KLQyToDOkxuxc8WSjmjW-113" vertex="1">
          <mxGeometry y="26" width="190" height="26" as="geometry" />
        </mxCell>
        <mxCell id="KLQyToDOkxuxc8WSjmjW-116" value="wishlist_id: INT" style="text;strokeColor=none;fillColor=none;align=left;verticalAlign=top;spacingLeft=4;spacingRight=4;overflow=hidden;rotatable=0;points=[[0,0.5],[1,0.5]];portConstraint=eastwest;whiteSpace=wrap;html=1;" parent="KLQyToDOkxuxc8WSjmjW-113" vertex="1">
          <mxGeometry y="52" width="190" height="26" as="geometry" />
        </mxCell>
        <mxCell id="KLQyToDOkxuxc8WSjmjW-117" value="product_id: INT" style="text;strokeColor=none;fillColor=none;align=left;verticalAlign=top;spacingLeft=4;spacingRight=4;overflow=hidden;rotatable=0;points=[[0,0.5],[1,0.5]];portConstraint=eastwest;whiteSpace=wrap;html=1;" parent="KLQyToDOkxuxc8WSjmjW-113" vertex="1">
          <mxGeometry y="78" width="190" height="26" as="geometry" />
        </mxCell>
        <mxCell id="KLQyToDOkxuxc8WSjmjW-118" value="ORDER_ITEMS" style="swimlane;fontStyle=0;childLayout=stackLayout;horizontal=1;startSize=26;fillColor=#0050ef;horizontalStack=0;resizeParent=1;resizeParentMax=0;resizeLast=0;collapsible=1;marginBottom=0;whiteSpace=wrap;html=1;strokeColor=#001DBC;gradientColor=none;" parent="1" vertex="1">
          <mxGeometry x="1140" y="480" width="190" height="130" as="geometry" />
        </mxCell>
        <mxCell id="KLQyToDOkxuxc8WSjmjW-119" value="id: INT" style="text;strokeColor=none;fillColor=none;align=left;verticalAlign=top;spacingLeft=4;spacingRight=4;overflow=hidden;rotatable=0;points=[[0,0.5],[1,0.5]];portConstraint=eastwest;whiteSpace=wrap;html=1;" parent="KLQyToDOkxuxc8WSjmjW-118" vertex="1">
          <mxGeometry y="26" width="190" height="26" as="geometry" />
        </mxCell>
        <mxCell id="KLQyToDOkxuxc8WSjmjW-120" value="quantity: TINYINT UNSIGNED" style="text;strokeColor=none;fillColor=none;align=left;verticalAlign=top;spacingLeft=4;spacingRight=4;overflow=hidden;rotatable=0;points=[[0,0.5],[1,0.5]];portConstraint=eastwest;whiteSpace=wrap;html=1;" parent="KLQyToDOkxuxc8WSjmjW-118" vertex="1">
          <mxGeometry y="52" width="190" height="26" as="geometry" />
        </mxCell>
        <mxCell id="KLQyToDOkxuxc8WSjmjW-121" value="order_id: INT" style="text;strokeColor=none;fillColor=none;align=left;verticalAlign=top;spacingLeft=4;spacingRight=4;overflow=hidden;rotatable=0;points=[[0,0.5],[1,0.5]];portConstraint=eastwest;whiteSpace=wrap;html=1;" parent="KLQyToDOkxuxc8WSjmjW-118" vertex="1">
          <mxGeometry y="78" width="190" height="26" as="geometry" />
        </mxCell>
        <mxCell id="KLQyToDOkxuxc8WSjmjW-122" value="product_id: INT" style="text;strokeColor=none;fillColor=none;align=left;verticalAlign=top;spacingLeft=4;spacingRight=4;overflow=hidden;rotatable=0;points=[[0,0.5],[1,0.5]];portConstraint=eastwest;whiteSpace=wrap;html=1;" parent="KLQyToDOkxuxc8WSjmjW-118" vertex="1">
          <mxGeometry y="104" width="190" height="26" as="geometry" />
        </mxCell>
        <mxCell id="L1XJs_MKKKZeRs-AraBL-1" value="1" style="resizable=0;html=1;whiteSpace=wrap;align=right;verticalAlign=bottom;labelBackgroundColor=none;fillColor=#09555B;strokeColor=#BAC8D3;fontColor=#EEEEEE;" connectable="0" vertex="1" parent="1">
          <mxGeometry x="650.0018595104993" y="714.99518595105" as="geometry">
            <mxPoint x="-85" y="-22" as="offset" />
          </mxGeometry>
        </mxCell>
        <mxCell id="L1XJs_MKKKZeRs-AraBL-2" value="" style="endArrow=none;html=1;rounded=0;exitX=1;exitY=0.5;exitDx=0;exitDy=0;entryX=0;entryY=0.5;entryDx=0;entryDy=0;labelBackgroundColor=none;strokeColor=#0B4D6A;fontColor=default;" edge="1" parent="1" target="KLQyToDOkxuxc8WSjmjW-19">
          <mxGeometry relative="1" as="geometry">
            <mxPoint x="550" y="800" as="sourcePoint" />
            <mxPoint x="730" y="707" as="targetPoint" />
          </mxGeometry>
        </mxCell>
        <mxCell id="L1XJs_MKKKZeRs-AraBL-3" value="1" style="resizable=0;html=1;whiteSpace=wrap;align=right;verticalAlign=bottom;labelBackgroundColor=none;fillColor=#09555B;strokeColor=#BAC8D3;fontColor=#EEEEEE;" connectable="0" vertex="1" parent="L1XJs_MKKKZeRs-AraBL-2">
          <mxGeometry x="1" relative="1" as="geometry">
            <mxPoint as="offset" />
          </mxGeometry>
        </mxCell>
        <mxCell id="L1XJs_MKKKZeRs-AraBL-4" value="1" style="resizable=0;html=1;whiteSpace=wrap;align=right;verticalAlign=bottom;labelBackgroundColor=none;fillColor=#09555B;strokeColor=#BAC8D3;fontColor=#EEEEEE;" connectable="0" vertex="1" parent="1">
          <mxGeometry x="650.0018595104993" y="809.99518595105" as="geometry">
            <mxPoint x="-85" y="-22" as="offset" />
          </mxGeometry>
        </mxCell>
        <mxCell id="L1XJs_MKKKZeRs-AraBL-5" value="" style="endArrow=none;html=1;rounded=0;exitX=1;exitY=0.5;exitDx=0;exitDy=0;entryX=0;entryY=0.5;entryDx=0;entryDy=0;labelBackgroundColor=none;strokeColor=#0B4D6A;fontColor=default;" edge="1" parent="1" source="KLQyToDOkxuxc8WSjmjW-5" target="KLQyToDOkxuxc8WSjmjW-36">
          <mxGeometry relative="1" as="geometry">
            <mxPoint x="570" y="725" as="sourcePoint" />
            <mxPoint x="750" y="632" as="targetPoint" />
          </mxGeometry>
        </mxCell>
        <mxCell id="L1XJs_MKKKZeRs-AraBL-6" value="1" style="resizable=0;html=1;whiteSpace=wrap;align=right;verticalAlign=bottom;labelBackgroundColor=none;fillColor=#09555B;strokeColor=#BAC8D3;fontColor=#EEEEEE;" connectable="0" vertex="1" parent="L1XJs_MKKKZeRs-AraBL-5">
          <mxGeometry x="1" relative="1" as="geometry">
            <mxPoint y="1" as="offset" />
          </mxGeometry>
        </mxCell>
        <mxCell id="L1XJs_MKKKZeRs-AraBL-8" value="1" style="resizable=0;html=1;whiteSpace=wrap;align=right;verticalAlign=bottom;labelBackgroundColor=none;fillColor=#09555B;strokeColor=#BAC8D3;fontColor=#EEEEEE;" connectable="0" vertex="1" parent="1">
          <mxGeometry x="759.7892147666603" y="880.9620586579988" as="geometry">
            <mxPoint x="-196" y="-45" as="offset" />
          </mxGeometry>
        </mxCell>
        <mxCell id="L1XJs_MKKKZeRs-AraBL-9" value="" style="endArrow=none;html=1;rounded=0;entryX=-0.022;entryY=0.115;entryDx=0;entryDy=0;labelBackgroundColor=none;strokeColor=#0B4D6A;fontColor=default;exitX=1;exitY=-0.154;exitDx=0;exitDy=0;exitPerimeter=0;entryPerimeter=0;" edge="1" parent="1" source="KLQyToDOkxuxc8WSjmjW-17" target="KLQyToDOkxuxc8WSjmjW-98">
          <mxGeometry relative="1" as="geometry">
            <mxPoint x="560" y="900" as="sourcePoint" />
            <mxPoint x="780" y="976" as="targetPoint" />
          </mxGeometry>
        </mxCell>
        <mxCell id="L1XJs_MKKKZeRs-AraBL-11" value="1" style="resizable=0;html=1;whiteSpace=wrap;align=right;verticalAlign=bottom;labelBackgroundColor=none;fillColor=#09555B;strokeColor=#BAC8D3;fontColor=#EEEEEE;" connectable="0" vertex="1" parent="1">
          <mxGeometry x="759.7892147666603" y="937.0020586579988" as="geometry">
            <mxPoint x="-196" y="-45" as="offset" />
          </mxGeometry>
        </mxCell>
        <mxCell id="L1XJs_MKKKZeRs-AraBL-14" value="&lt;font style=&quot;font-size: 15px;&quot;&gt;*&lt;/font&gt;" style="resizable=0;html=1;whiteSpace=wrap;align=right;verticalAlign=bottom;labelBackgroundColor=none;fillColor=#09555B;strokeColor=#BAC8D3;fontColor=#EEEEEE;" connectable="0" vertex="1" parent="1">
          <mxGeometry x="870.0004590920579" y="1059.9989294691034" as="geometry" />
        </mxCell>
        <mxCell id="L1XJs_MKKKZeRs-AraBL-20" value="" style="endArrow=none;html=1;rounded=0;exitX=1;exitY=0.5;exitDx=0;exitDy=0;entryX=-0.016;entryY=1.077;entryDx=0;entryDy=0;labelBackgroundColor=none;strokeColor=#0B4D6A;fontColor=default;entryPerimeter=0;" edge="1" parent="1" source="KLQyToDOkxuxc8WSjmjW-41" target="KLQyToDOkxuxc8WSjmjW-120">
          <mxGeometry relative="1" as="geometry">
            <mxPoint x="910" y="470" as="sourcePoint" />
            <mxPoint x="1090" y="377" as="targetPoint" />
          </mxGeometry>
        </mxCell>
        <mxCell id="L1XJs_MKKKZeRs-AraBL-21" value="&lt;font style=&quot;font-size: 15px;&quot;&gt;*&lt;/font&gt;" style="resizable=0;html=1;whiteSpace=wrap;align=right;verticalAlign=bottom;labelBackgroundColor=none;fillColor=#09555B;strokeColor=#BAC8D3;fontColor=#EEEEEE;" connectable="0" vertex="1" parent="L1XJs_MKKKZeRs-AraBL-20">
          <mxGeometry x="1" relative="1" as="geometry">
            <mxPoint x="-10" y="2" as="offset" />
          </mxGeometry>
        </mxCell>
        <mxCell id="L1XJs_MKKKZeRs-AraBL-22" value="1" style="resizable=0;html=1;whiteSpace=wrap;align=right;verticalAlign=bottom;labelBackgroundColor=none;fillColor=#09555B;strokeColor=#BAC8D3;fontColor=#EEEEEE;" connectable="0" vertex="1" parent="1">
          <mxGeometry x="1080.0018595104993" y="602.99518595105" as="geometry">
            <mxPoint x="-85" y="-22" as="offset" />
          </mxGeometry>
        </mxCell>
        <mxCell id="L1XJs_MKKKZeRs-AraBL-23" value="" style="endArrow=none;html=1;rounded=0;exitX=1.017;exitY=0;exitDx=0;exitDy=0;entryX=0;entryY=0.5;entryDx=0;entryDy=0;labelBackgroundColor=none;strokeColor=#0B4D6A;fontColor=default;exitPerimeter=0;" edge="1" parent="1" source="KLQyToDOkxuxc8WSjmjW-20">
          <mxGeometry relative="1" as="geometry">
            <mxPoint x="920" y="830" as="sourcePoint" />
            <mxPoint x="1100" y="737" as="targetPoint" />
          </mxGeometry>
        </mxCell>
        <mxCell id="L1XJs_MKKKZeRs-AraBL-24" value="&lt;font style=&quot;font-size: 15px;&quot;&gt;*&lt;/font&gt;" style="resizable=0;html=1;whiteSpace=wrap;align=right;verticalAlign=bottom;labelBackgroundColor=none;fillColor=#09555B;strokeColor=#BAC8D3;fontColor=#EEEEEE;" connectable="0" vertex="1" parent="L1XJs_MKKKZeRs-AraBL-23">
          <mxGeometry x="1" relative="1" as="geometry">
            <mxPoint x="-10" y="2" as="offset" />
          </mxGeometry>
        </mxCell>
        <mxCell id="L1XJs_MKKKZeRs-AraBL-25" value="1" style="resizable=0;html=1;whiteSpace=wrap;align=right;verticalAlign=bottom;labelBackgroundColor=none;fillColor=#09555B;strokeColor=#BAC8D3;fontColor=#EEEEEE;" connectable="0" vertex="1" parent="1">
          <mxGeometry x="1050.0018595104993" y="769.99518595105" as="geometry">
            <mxPoint x="-85" y="-22" as="offset" />
          </mxGeometry>
        </mxCell>
        <mxCell id="L1XJs_MKKKZeRs-AraBL-26" value="" style="endArrow=none;html=1;rounded=0;exitX=1.011;exitY=0.269;exitDx=0;exitDy=0;entryX=0;entryY=0.5;entryDx=0;entryDy=0;labelBackgroundColor=none;strokeColor=#0B4D6A;fontColor=default;exitPerimeter=0;" edge="1" parent="1">
          <mxGeometry relative="1" as="geometry">
            <mxPoint x="931.98" y="882.5039999999999" as="sourcePoint" />
            <mxPoint x="1100" y="888.51" as="targetPoint" />
          </mxGeometry>
        </mxCell>
        <mxCell id="L1XJs_MKKKZeRs-AraBL-27" value="&lt;font style=&quot;font-size: 15px;&quot;&gt;*&lt;/font&gt;" style="resizable=0;html=1;whiteSpace=wrap;align=right;verticalAlign=bottom;labelBackgroundColor=none;fillColor=#09555B;strokeColor=#BAC8D3;fontColor=#EEEEEE;" connectable="0" vertex="1" parent="L1XJs_MKKKZeRs-AraBL-26">
          <mxGeometry x="1" relative="1" as="geometry">
            <mxPoint x="-10" y="2" as="offset" />
          </mxGeometry>
        </mxCell>
        <mxCell id="L1XJs_MKKKZeRs-AraBL-28" value="1" style="resizable=0;html=1;whiteSpace=wrap;align=right;verticalAlign=bottom;labelBackgroundColor=none;fillColor=#09555B;strokeColor=#BAC8D3;fontColor=#EEEEEE;" connectable="0" vertex="1" parent="1">
          <mxGeometry x="1030.0018595104993" y="899.99518595105" as="geometry">
            <mxPoint x="-85" y="-22" as="offset" />
          </mxGeometry>
        </mxCell>
        <mxCell id="L1XJs_MKKKZeRs-AraBL-29" value="" style="endArrow=none;html=1;rounded=0;exitX=0;exitY=0.077;exitDx=0;exitDy=0;labelBackgroundColor=none;strokeColor=#0B4D6A;fontColor=default;exitPerimeter=0;entryX=1;entryY=0.5;entryDx=0;entryDy=0;" edge="1" parent="1" source="KLQyToDOkxuxc8WSjmjW-70" target="KLQyToDOkxuxc8WSjmjW-99">
          <mxGeometry relative="1" as="geometry">
            <mxPoint x="1140" y="1173" as="sourcePoint" />
            <mxPoint x="1025" y="1124" as="targetPoint" />
          </mxGeometry>
        </mxCell>
        <mxCell id="L1XJs_MKKKZeRs-AraBL-30" value="&lt;font style=&quot;font-size: 15px;&quot;&gt;*&lt;/font&gt;" style="resizable=0;html=1;whiteSpace=wrap;align=right;verticalAlign=bottom;labelBackgroundColor=none;fillColor=#09555B;strokeColor=#BAC8D3;fontColor=#EEEEEE;" connectable="0" vertex="1" parent="L1XJs_MKKKZeRs-AraBL-29">
          <mxGeometry x="1" relative="1" as="geometry">
            <mxPoint x="15" y="-7" as="offset" />
          </mxGeometry>
        </mxCell>
        <mxCell id="L1XJs_MKKKZeRs-AraBL-32" value="" style="endArrow=none;html=1;rounded=0;exitX=-0.017;exitY=0.231;exitDx=0;exitDy=0;entryX=1;entryY=0.5;entryDx=0;entryDy=0;labelBackgroundColor=none;strokeColor=#0B4D6A;fontColor=default;exitPerimeter=0;" edge="1" parent="1" source="KLQyToDOkxuxc8WSjmjW-69" target="KLQyToDOkxuxc8WSjmjW-116">
          <mxGeometry relative="1" as="geometry">
            <mxPoint x="1240" y="1030" as="sourcePoint" />
            <mxPoint x="1420" y="937" as="targetPoint" />
          </mxGeometry>
        </mxCell>
        <mxCell id="L1XJs_MKKKZeRs-AraBL-33" value="&lt;font style=&quot;font-size: 15px;&quot;&gt;*&lt;/font&gt;" style="resizable=0;html=1;whiteSpace=wrap;align=right;verticalAlign=bottom;labelBackgroundColor=none;fillColor=#09555B;strokeColor=#BAC8D3;fontColor=#EEEEEE;" connectable="0" vertex="1" parent="L1XJs_MKKKZeRs-AraBL-32">
          <mxGeometry x="1" relative="1" as="geometry">
            <mxPoint x="20" y="4" as="offset" />
          </mxGeometry>
        </mxCell>
        <mxCell id="L1XJs_MKKKZeRs-AraBL-35" value="" style="endArrow=none;html=1;rounded=0;exitX=0;exitY=0.101;exitDx=0;exitDy=0;entryX=1;entryY=0.808;entryDx=0;entryDy=0;labelBackgroundColor=none;strokeColor=#0B4D6A;fontColor=default;entryPerimeter=0;exitPerimeter=0;" edge="1" parent="1" source="KLQyToDOkxuxc8WSjmjW-64" target="KLQyToDOkxuxc8WSjmjW-122">
          <mxGeometry relative="1" as="geometry">
            <mxPoint x="1320" y="740" as="sourcePoint" />
            <mxPoint x="1500" y="647" as="targetPoint" />
          </mxGeometry>
        </mxCell>
        <mxCell id="L1XJs_MKKKZeRs-AraBL-36" value="&lt;font style=&quot;font-size: 15px;&quot;&gt;*&lt;/font&gt;" style="resizable=0;html=1;whiteSpace=wrap;align=right;verticalAlign=bottom;labelBackgroundColor=none;fillColor=#09555B;strokeColor=#BAC8D3;fontColor=#EEEEEE;" connectable="0" vertex="1" parent="L1XJs_MKKKZeRs-AraBL-35">
          <mxGeometry x="1" relative="1" as="geometry">
            <mxPoint x="20" y="5" as="offset" />
          </mxGeometry>
        </mxCell>
        <mxCell id="L1XJs_MKKKZeRs-AraBL-38" value="" style="endArrow=none;html=1;rounded=0;exitX=0;exitY=0.5;exitDx=0;exitDy=0;entryX=1;entryY=0.5;entryDx=0;entryDy=0;labelBackgroundColor=none;strokeColor=#0B4D6A;fontColor=default;" edge="1" parent="1" source="KLQyToDOkxuxc8WSjmjW-66" target="KLQyToDOkxuxc8WSjmjW-110">
          <mxGeometry relative="1" as="geometry">
            <mxPoint x="1340" y="818" as="sourcePoint" />
            <mxPoint x="1520" y="725" as="targetPoint" />
          </mxGeometry>
        </mxCell>
        <mxCell id="L1XJs_MKKKZeRs-AraBL-39" value="&lt;font style=&quot;font-size: 15px;&quot;&gt;*&lt;/font&gt;" style="resizable=0;html=1;whiteSpace=wrap;align=right;verticalAlign=bottom;labelBackgroundColor=none;fillColor=#09555B;strokeColor=#BAC8D3;fontColor=#EEEEEE;" connectable="0" vertex="1" parent="L1XJs_MKKKZeRs-AraBL-38">
          <mxGeometry x="1" relative="1" as="geometry">
            <mxPoint x="20" y="6" as="offset" />
          </mxGeometry>
        </mxCell>
        <mxCell id="L1XJs_MKKKZeRs-AraBL-41" value="1" style="text;html=1;align=center;verticalAlign=middle;whiteSpace=wrap;rounded=0;" vertex="1" parent="1">
          <mxGeometry x="1480" y="770" width="20" height="30" as="geometry" />
        </mxCell>
        <mxCell id="L1XJs_MKKKZeRs-AraBL-42" value="1" style="text;html=1;align=center;verticalAlign=middle;whiteSpace=wrap;rounded=0;" vertex="1" parent="1">
          <mxGeometry x="1470" y="900" width="20" height="30" as="geometry" />
        </mxCell>
        <mxCell id="L1XJs_MKKKZeRs-AraBL-43" value="1" style="text;html=1;align=center;verticalAlign=middle;whiteSpace=wrap;rounded=0;" vertex="1" parent="1">
          <mxGeometry x="1470" y="997.5" width="20" height="30" as="geometry" />
        </mxCell>
        <mxCell id="L1XJs_MKKKZeRs-AraBL-46" value="" style="endArrow=none;html=1;rounded=0;exitX=-0.006;exitY=0;exitDx=0;exitDy=0;entryX=1;entryY=0.808;entryDx=0;entryDy=0;labelBackgroundColor=none;strokeColor=#0B4D6A;fontColor=default;entryPerimeter=0;exitPerimeter=0;" edge="1" parent="1" source="KLQyToDOkxuxc8WSjmjW-78">
          <mxGeometry relative="1" as="geometry">
            <mxPoint x="1840" y="793" as="sourcePoint" />
            <mxPoint x="1670" y="575" as="targetPoint" />
          </mxGeometry>
        </mxCell>
        <mxCell id="L1XJs_MKKKZeRs-AraBL-47" value="&lt;font style=&quot;font-size: 15px;&quot;&gt;*&lt;/font&gt;" style="resizable=0;html=1;whiteSpace=wrap;align=right;verticalAlign=bottom;labelBackgroundColor=none;fillColor=#09555B;strokeColor=#BAC8D3;fontColor=#EEEEEE;" connectable="0" vertex="1" parent="L1XJs_MKKKZeRs-AraBL-46">
          <mxGeometry x="1" relative="1" as="geometry">
            <mxPoint x="190" y="93" as="offset" />
          </mxGeometry>
        </mxCell>
        <mxCell id="L1XJs_MKKKZeRs-AraBL-48" value="1" style="text;html=1;align=center;verticalAlign=middle;whiteSpace=wrap;rounded=0;" vertex="1" parent="1">
          <mxGeometry x="1680" y="558" width="20" height="30" as="geometry" />
        </mxCell>
        <mxCell id="L1XJs_MKKKZeRs-AraBL-49" value="" style="endArrow=none;html=1;rounded=0;entryX=1;entryY=0.5;entryDx=0;entryDy=0;labelBackgroundColor=none;strokeColor=#0B4D6A;fontColor=default;exitX=-0.006;exitY=0.885;exitDx=0;exitDy=0;exitPerimeter=0;" edge="1" parent="1" source="KLQyToDOkxuxc8WSjmjW-81" target="KLQyToDOkxuxc8WSjmjW-69">
          <mxGeometry relative="1" as="geometry">
            <mxPoint x="1840" y="775" as="sourcePoint" />
            <mxPoint x="1641" y="669" as="targetPoint" />
          </mxGeometry>
        </mxCell>
        <mxCell id="L1XJs_MKKKZeRs-AraBL-50" value="&lt;font style=&quot;font-size: 15px;&quot;&gt;*&lt;/font&gt;" style="resizable=0;html=1;whiteSpace=wrap;align=right;verticalAlign=bottom;labelBackgroundColor=none;fillColor=#09555B;strokeColor=#BAC8D3;fontColor=#EEEEEE;" connectable="0" vertex="1" parent="L1XJs_MKKKZeRs-AraBL-49">
          <mxGeometry x="1" relative="1" as="geometry">
            <mxPoint x="180" y="65" as="offset" />
          </mxGeometry>
        </mxCell>
        <mxCell id="L1XJs_MKKKZeRs-AraBL-51" value="" style="endArrow=none;html=1;rounded=0;labelBackgroundColor=none;strokeColor=#0B4D6A;fontColor=default;exitX=0;exitY=0.5;exitDx=0;exitDy=0;entryX=1;entryY=0.5;entryDx=0;entryDy=0;" edge="1" parent="1" source="KLQyToDOkxuxc8WSjmjW-87" target="KLQyToDOkxuxc8WSjmjW-69">
          <mxGeometry relative="1" as="geometry">
            <mxPoint x="1869" y="997.5" as="sourcePoint" />
            <mxPoint x="1690" y="940" as="targetPoint" />
          </mxGeometry>
        </mxCell>
        <mxCell id="L1XJs_MKKKZeRs-AraBL-52" value="&lt;font style=&quot;font-size: 15px;&quot;&gt;*&lt;/font&gt;" style="resizable=0;html=1;whiteSpace=wrap;align=right;verticalAlign=bottom;labelBackgroundColor=none;fillColor=#09555B;strokeColor=#BAC8D3;fontColor=#EEEEEE;" connectable="0" vertex="1" parent="L1XJs_MKKKZeRs-AraBL-51">
          <mxGeometry x="1" relative="1" as="geometry">
            <mxPoint x="180" y="-117" as="offset" />
          </mxGeometry>
        </mxCell>
        <mxCell id="L1XJs_MKKKZeRs-AraBL-53" value="&lt;font style=&quot;font-size: 15px;&quot;&gt;*&lt;/font&gt;" style="resizable=0;html=1;whiteSpace=wrap;align=right;verticalAlign=bottom;labelBackgroundColor=none;fillColor=#09555B;strokeColor=#BAC8D3;fontColor=#EEEEEE;" connectable="0" vertex="1" parent="1">
          <mxGeometry x="1970.0030204926884" y="519.9981166912576" as="geometry" />
        </mxCell>
      </root>
    </mxGraphModel>
  </diagram>
</mxfile>
